<svg width="32" height="32" viewBox="0 0 32 32" fill="none" xmlns="http://www.w3.org/2000/svg">
  <circle cx="16" cy="16" r="16" fill="url(#paint0_linear)"/>
  
  <path d="M16 8C12.134 8 9 11.134 9 15C9 18.866 16 25 16 25C16 25 23 18.866 23 15C23 11.134 19.866 8 16 8ZM16 17.5C14.6193 17.5 13.5 16.3807 13.5 15C13.5 13.6193 14.6193 12.5 16 12.5C17.3807 12.5 18.5 13.6193 18.5 15C18.5 16.3807 17.3807 17.5 16 17.5Z" fill="white"/>
  
  <defs>
    <linearGradient id="paint0_linear" x1="0" y1="0" x2="32" y2="32" gradientUnits="userSpaceOnUse">
      <stop stop-color="#00B4DB"/>
      <stop offset="1" stop-color="#0083B0"/>
    </linearGradient>
  </defs>
</svg>